<?xml version="1.0" encoding="UTF-8" standalone="no"?>
<!-- Created with Inkscape (http://www.inkscape.org/) -->

<svg
   width="40.192081mm"
   height="59.931667mm"
   viewBox="0 0 40.192081 59.931667"
   version="1.1"
   id="svg1"
   inkscape:version="1.3 (0e150ed6c4, 2023-07-21)"
   sodipodi:docname="ButtonIconsSourceFile.svg"
   xmlns:inkscape="http://www.inkscape.org/namespaces/inkscape"
   xmlns:sodipodi="http://sodipodi.sourceforge.net/DTD/sodipodi-0.dtd"
   xmlns="http://www.w3.org/2000/svg"
   xmlns:svg="http://www.w3.org/2000/svg">
  <sodipodi:namedview
     id="namedview1"
     pagecolor="#505050"
     bordercolor="#ffffff"
     borderopacity="1"
     inkscape:showpageshadow="0"
     inkscape:pageopacity="0"
     inkscape:pagecheckerboard="1"
     inkscape:deskcolor="#505050"
     inkscape:document-units="mm"
     inkscape:zoom="0.32917017"
     inkscape:cx="-173.16271"
     inkscape:cy="715.43542"
     inkscape:window-width="1920"
     inkscape:window-height="974"
     inkscape:window-x="2869"
     inkscape:window-y="76"
     inkscape:window-maximized="1"
     inkscape:current-layer="layer1" />
  <defs
     id="defs1" />
  <g
     inkscape:label="Layer 1"
     inkscape:groupmode="layer"
     id="layer1"
     transform="translate(72.623987,62.361689)">
    <g
       id="g8"
       transform="translate(-164.87449,-65.50736)"
       inkscape:export-filename="MenuIcon.svg"
       inkscape:export-xdpi="96"
       inkscape:export-ydpi="96">
      <path
         id="rect1-9-2"
         style="fill:#141220;fill-opacity:1;stroke:#cbe6ad;stroke-width:0.5;stroke-opacity:1"
         d="m 92.500901,9.8080575 36.904349,-6.365234 -0.36551,55.1728815 -36.444645,0.2659 z"
         sodipodi:nodetypes="ccccc" />
      <rect
         style="fill:#141220;fill-opacity:1;stroke:#cbe6ad;stroke-width:0.5;stroke-dasharray:none;stroke-opacity:1"
         id="rect1-1"
         width="39.6875"
         height="52.916668"
         x="92.505081"
         y="9.9106684" />
      <path
         d="m 105.06345,19.834839 0.0671,1.141219 -2.74396,4.078176 q 0,0 -0.0923,0.151044 -0.0923,0.151043 -0.18461,0.377609 -0.0839,0.218174 -0.0755,0.444739 h -0.0755 l -0.46991,-0.864305 z m -6.033361,5.37883 v 0.612566 h -0.93143 v -0.08391 q 0.008,0 0.0755,0 0.0587,0 0.0587,0 0.22657,0 0.40278,-0.134261 0.17622,-0.142653 0.20979,-0.394392 z m 0.45313,0.134261 q 0,0.0084 0,0.01678 0,0.0084 0,0.02517 0,0.134261 0.0923,0.25174 0.10069,0.109087 0.23496,0.109087 h 0.13426 v 0.07552 h -0.52026 v -0.478305 z m 0.1007,-5.513091 h 0.0755 l 0.377611,1.065697 -0.612561,4.925699 h -0.66292 z m 0.0755,0 2.953741,4.03622 -0.65452,2.156567 -2.550961,-3.52435 z m 5.479531,0 0.84752,5.991396 h -1.79574 l -0.40278,-3.062828 1.27548,-2.928568 z m 0.579,5.37883 h 0.18461 q 0.0419,0.251739 0.20978,0.394392 0.17622,0.134261 0.40278,0.134261 0,0 0.0587,0 0.0671,0 0.0755,0 v 0.08391 h -0.93143 z m -1.58596,0.134261 h 0.0587 v 0.478305 h -0.52026 v -0.07552 h 0.13426 q 0.13426,0 0.22656,-0.109087 0.1007,-0.117479 0.1007,-0.25174 0,-0.01678 0,-0.02517 0,-0.0084 0,-0.01678 z m 4.91731,-5.395612 v 5.873917 h -1.72022 v -5.873917 z m 2.18174,5.44596 0.33565,0.427957 h -2.54256 v -0.427957 z m -0.27691,-2.676828 v 0.419565 h -1.93 V 22.72145 Z m 0.44474,-2.769132 v 0.427957 h -2.37474 v -0.427957 z m 0.51187,3.927133 -0.31887,1.946784 h -1.81252 l 0.30208,-0.427957 q 0.40279,0 0.74683,-0.176218 0.35243,-0.184609 0.61256,-0.520261 0.26014,-0.344044 0.386,-0.822348 z m -0.95661,-0.755218 v 0.973392 h -0.0839 v -0.04196 q 0,-0.394391 -0.26013,-0.646131 -0.25174,-0.26013 -0.64614,-0.268522 v -0.01678 z m 0,-1.359392 v 0.973392 h -0.99018 v -0.01678 q 0.3944,-0.0084 0.65453,-0.268522 0.26013,-0.260131 0.25174,-0.654522 v -0.03357 z m 0.44474,-1.40974 v 1.174783 h -0.0839 v -0.06713 q 0,-0.503479 -0.28531,-0.788784 -0.2853,-0.293695 -0.79717,-0.302087 v -0.01678 z m 0,-0.553827 v 0.243348 l -1.02374,-0.0923 q 0.18461,0 0.386,-0.02517 0.20978,-0.02517 0.386,-0.05874 0.17622,-0.03357 0.25174,-0.06713 z m -4.04461,5.412395 v 0.612566 h -0.67131 v -0.08391 q 0,0 0.0503,0 0.0587,0 0.0587,0 0.21817,0 0.36922,-0.151044 0.15943,-0.159435 0.16782,-0.377609 z m 0,-4.648786 h -0.0252 q -0.008,-0.218174 -0.16782,-0.369217 -0.15105,-0.159435 -0.36922,-0.159435 0,0 -0.0587,0 -0.0503,0 -0.0503,0 v -0.08391 h 0.67131 z m 5.48791,-0.738435 5.66414,5.034786 0.10908,1.082479 -5.66413,-5.026395 z m 0.0504,5.404004 v 0.595783 h -0.69648 v -0.08391 q 0,0 0.0755,0 0.0755,0 0.0839,0 0.20978,0 0.36082,-0.151044 0.15105,-0.151044 0.15105,-0.360826 z m 1.70344,0 q 0,0.209782 0.15104,0.360826 0.15104,0.151044 0.36083,0.151044 0.008,0 0.0839,0 0.0755,0 0.0755,0 v 0.08391 h -0.69648 v -0.595783 z m -1.75379,-5.404004 1.74539,1.812523 0.008,4.187264 H 112.867 v -4.950873 q 0,-0.495087 -0.0587,-0.772001 -0.0503,-0.276913 -0.0503,-0.276913 z m 5.73966,0.12587 v 4.917307 q 0,0.344044 0.0252,0.587392 0.0336,0.243348 0.0587,0.369218 0.0252,0.117478 0.0252,0.117478 h -0.0755 l -1.75378,-1.946784 v -4.044611 z m 0.6713,0 v 0.08391 q 0,0 -0.0755,0 -0.0755,0 -0.0755,0 -0.20978,0 -0.36083,0.151043 -0.15104,0.142653 -0.15943,0.360827 h -0.0252 v -0.595783 z m -3.07122,0 h 0.69648 v 0.595783 h -0.0168 q -0.008,-0.218174 -0.15944,-0.360827 -0.14265,-0.151043 -0.36082,-0.151043 0,0 -0.0755,0 -0.0755,0 -0.0839,0 z m 5.79001,0 v 3.692176 q 0,0.587392 0.18461,1.006957 0.18461,0.419566 0.52026,0.646131 0.34404,0.218174 0.82235,0.218174 0.4867,0 0.82235,-0.209783 0.34404,-0.209782 0.52865,-0.604174 0.18461,-0.394391 0.18461,-0.948218 v -3.801263 h 0.73004 v 3.71735 q 0,0.70487 -0.29369,1.21674 -0.2937,0.51187 -0.85592,0.788783 -0.56221,0.268522 -1.36778,0.268522 -1.02374,0 -1.69504,-0.268522 -0.66292,-0.276913 -0.98179,-0.780392 -0.31887,-0.51187 -0.31887,-1.21674 v -3.725741 z m -1.69504,0 v 0.503478 h -0.0252 q 0,-0.184608 -0.13426,-0.302087 -0.12587,-0.117478 -0.31048,-0.117478 0,0 -0.0671,0 -0.0671,0 -0.0671,0 v -0.08391 z m 2.27404,0 v 0.08391 q 0,0 -0.0671,0 -0.0671,0 -0.0671,0 -0.18461,0 -0.31887,0.117478 -0.12587,0.117479 -0.12587,0.302087 h -0.0168 v -0.503478 z m 2.509,0 v 0.503478 h -0.0252 q 0,-0.184608 -0.13426,-0.302087 -0.12587,-0.117478 -0.31048,-0.117478 0,0 -0.0671,0 -0.0671,0 -0.0671,0 v -0.08391 z m 1.28387,0 v 0.08391 q 0,0 -0.0671,0 -0.0671,0 -0.0671,0 -0.18461,0 -0.31887,0.117478 -0.12587,0.117479 -0.12587,0.302087 h -0.0168 v -0.503478 z"
         id="text1-2"
         style="font-weight:900;font-size:8.39131px;line-height:0.8;font-family:Cinzel;-inkscape-font-specification:'Cinzel Heavy';text-align:center;text-anchor:middle;fill:#cbe6ad;fill-opacity:1;stroke:#f5f5f5;stroke-width:6.60733e-09"
         aria-label="MENU" />
      <rect
         style="fill:#cbe6ad;fill-opacity:1;stroke:#f5f5f5;stroke-width:7.9375e-09;stroke-dasharray:none;stroke-opacity:1"
         id="rect2-4"
         width="27.931664"
         height="1.5071042"
         x="98.057602"
         y="33.879295" />
      <rect
         style="fill:#cbe6ad;fill-opacity:1;stroke:#f5f5f5;stroke-width:7.9375e-09;stroke-dasharray:none;stroke-opacity:1"
         id="rect2-8-2"
         width="27.931664"
         height="1.5071042"
         x="98.007797"
         y="37.902657" />
      <rect
         style="fill:#cbe6ad;fill-opacity:1;stroke:#f5f5f5;stroke-width:7.9375e-09;stroke-dasharray:none;stroke-opacity:1"
         id="rect2-87-5"
         width="27.931664"
         height="1.5071042"
         x="97.994431"
         y="41.616905" />
    </g>
  </g>
</svg>
