<?xml version="1.0" encoding="UTF-8" standalone="no"?>
<!-- Created with Inkscape (http://www.inkscape.org/) -->

<svg
   width="40.192085mm"
   height="59.931667mm"
   viewBox="0 0 40.192085 59.931667"
   version="1.1"
   id="svg1"
   inkscape:version="1.3 (0e150ed6c4, 2023-07-21)"
   sodipodi:docname="ButtonIconsSourceFile.svg"
   xmlns:inkscape="http://www.inkscape.org/namespaces/inkscape"
   xmlns:sodipodi="http://sodipodi.sourceforge.net/DTD/sodipodi-0.dtd"
   xmlns="http://www.w3.org/2000/svg"
   xmlns:svg="http://www.w3.org/2000/svg">
  <sodipodi:namedview
     id="namedview1"
     pagecolor="#505050"
     bordercolor="#ffffff"
     borderopacity="1"
     inkscape:showpageshadow="0"
     inkscape:pageopacity="0"
     inkscape:pagecheckerboard="1"
     inkscape:deskcolor="#505050"
     inkscape:document-units="mm"
     inkscape:zoom="0.32917017"
     inkscape:cx="-173.16271"
     inkscape:cy="715.43542"
     inkscape:window-width="1920"
     inkscape:window-height="974"
     inkscape:window-x="2869"
     inkscape:window-y="76"
     inkscape:window-maximized="1"
     inkscape:current-layer="layer1" />
  <defs
     id="defs1" />
  <g
     inkscape:label="Layer 1"
     inkscape:groupmode="layer"
     id="layer1"
     transform="translate(68.024271,-26.837892)">
    <g
       id="g7"
       transform="translate(-107.77057,23.809883)"
       inkscape:export-filename="MenuIconDark.svg"
       inkscape:export-xdpi="96"
       inkscape:export-ydpi="96">
      <path
         id="rect1-9-1"
         style="fill:#98e69d;fill-opacity:1;stroke:#141220;stroke-width:0.5"
         d="M 39.996706,9.690395 76.901054,3.325161 76.535549,58.498042 40.0909,58.763942 Z"
         sodipodi:nodetypes="ccccc" />
      <rect
         style="fill:#cbe6ad;fill-opacity:1;stroke:#141220;stroke-width:0.5;stroke-dasharray:none"
         id="rect1-6"
         width="39.6875"
         height="52.916668"
         x="40.000885"
         y="9.7930107" />
      <path
         style="font-weight:900;font-size:8.39131px;line-height:0.8;font-family:Cinzel;-inkscape-font-specification:'Cinzel Heavy';text-align:center;text-anchor:middle;fill:#141220;fill-opacity:1;stroke:#141220;stroke-width:6.60733e-09"
         d="m 52.559261,19.717181 0.06713,1.141218 -2.743959,4.078177 q 0,0 -0.0923,0.151043 -0.0923,0.151044 -0.184609,0.377609 -0.08391,0.218174 -0.07552,0.44474 h -0.07552 L 48.98457,25.045663 Z m -6.033352,5.37883 v 0.612565 h -0.931435 v -0.08391 q 0.0084,0 0.07552,0 0.05874,0 0.05874,0 0.226565,0 0.402783,-0.134261 0.176217,-0.142652 0.209783,-0.394391 z m 0.453131,0.134261 q 0,0.0084 0,0.01678 0,0.0084 0,0.02517 0,0.134261 0.0923,0.251739 0.100695,0.109087 0.234956,0.109087 h 0.134261 v 0.07552 h -0.520256 v -0.478296 z m 0.100696,-5.513091 h 0.07552 l 0.377609,1.065696 -0.612566,4.925699 h -0.662914 z m 0.07552,0 2.953741,4.03622 -0.654523,2.156567 -2.550958,-3.52435 z m 5.479525,0 0.847522,5.991395 h -1.79574 l -0.402781,-3.062828 1.275479,-2.928567 z m 0.579,5.37883 h 0.184609 q 0.04196,0.251739 0.209783,0.394391 0.176217,0.134261 0.402783,0.134261 0,0 0.05874,0 0.06713,0 0.07552,0 v 0.08391 H 53.21378 Z m -1.585957,0.134261 h 0.05874 v 0.478304 h -0.520261 v -0.07552 h 0.134261 q 0.134261,0 0.226565,-0.109087 0.100696,-0.117478 0.100696,-0.251739 0,-0.01678 0,-0.02517 0,-0.0084 0,-0.01678 z m 4.917311,-5.395613 v 5.873917 h -1.720219 v -5.873917 z m 2.18174,5.44596 0.335653,0.427957 h -2.542565 v -0.427957 z m -0.276911,-2.676827 v 0.419565 h -1.930001 v -0.419565 z m 0.444739,-2.769133 v 0.427957 h -2.37474 v -0.427957 z m 0.51187,3.927133 -0.318869,1.946784 h -1.812523 l 0.302087,-0.427957 q 0.402783,0 0.746826,-0.176217 0.352435,-0.184609 0.612566,-0.520261 0.260131,-0.344044 0.386,-0.822349 z m -0.956609,-0.755218 v 0.973392 h -0.08391 v -0.04196 q 0,-0.394392 -0.260131,-0.646131 -0.251739,-0.260131 -0.646131,-0.268522 v -0.01678 z m 0,-1.359392 v 0.973392 h -0.990175 v -0.01678 q 0.394392,-0.0084 0.654523,-0.268522 0.26013,-0.260131 0.251739,-0.654522 v -0.03357 z m 0.444739,-1.40974 v 1.174784 h -0.08391 v -0.06713 q 0,-0.503478 -0.285304,-0.788783 -0.285305,-0.293696 -0.797175,-0.302087 v -0.01678 z m 0,-0.553826 v 0.243348 l -1.023739,-0.0923 q 0.184608,0 0.386,-0.02517 0.209783,-0.02517 0.386,-0.05874 0.176218,-0.03356 0.251739,-0.06713 z m -4.044611,5.412395 v 0.612565 h -0.671305 v -0.08391 q 0,0 0.05035,0 0.05874,0 0.05874,0 0.218174,0 0.369218,-0.151043 0.159435,-0.159435 0.167826,-0.377609 z m 0,-4.648786 h -0.02517 q -0.0084,-0.218174 -0.167826,-0.369218 -0.151044,-0.159435 -0.369218,-0.159435 0,0 -0.05874,0 -0.05035,0 -0.05035,0 v -0.08391 h 0.671305 z m 5.487915,-0.738435 5.664134,5.034786 0.109087,1.082479 -5.664134,-5.026395 z m 0.05035,5.404003 v 0.595783 h -0.696479 v -0.08391 q 0,0 0.07552,0 0.07552,0 0.08391,0 0.209783,0 0.360826,-0.151043 0.151044,-0.151044 0.151044,-0.360827 z m 1.703436,0 q 0,0.209783 0.151043,0.360827 0.151044,0.151043 0.360827,0.151043 0.0084,0 0.08391,0 0.07552,0 0.07552,0 v 0.08391 H 62.066614 V 25.11279 Z m -1.753784,-5.404003 1.745393,1.812523 0.0084,4.187263 h -1.72861 v -4.950873 q 0,-0.495087 -0.05874,-0.772 -0.05035,-0.276913 -0.05035,-0.276913 z m 5.739656,0.125869 v 4.917308 q 0,0.344044 0.02517,0.587392 0.03356,0.243348 0.05874,0.369217 0.02517,0.117479 0.02517,0.117479 h -0.07552 l -1.753784,-1.946784 v -4.044612 z m 0.671305,0 v 0.08391 q 0,0 -0.07552,0 -0.07552,0 -0.07552,0 -0.209783,0 -0.360826,0.151044 -0.151044,0.142652 -0.159435,0.360826 h -0.02517 v -0.595783 z m -3.07122,0 h 0.696479 v 0.595783 h -0.01678 q -0.0084,-0.218174 -0.159434,-0.360826 -0.142653,-0.151044 -0.360827,-0.151044 0,0 -0.07552,0 -0.07552,0 -0.08391,0 z m 5.790008,0 v 3.692177 q 0,0.587391 0.184609,1.006957 0.184609,0.419565 0.520261,0.646131 0.344044,0.218174 0.822348,0.218174 0.486696,0 0.822349,-0.209783 0.344044,-0.209783 0.528652,-0.604174 0.184609,-0.394392 0.184609,-0.948218 v -3.801264 h 0.730044 v 3.717351 q 0,0.70487 -0.293696,1.21674 -0.293696,0.511869 -0.855913,0.788783 -0.562218,0.268522 -1.367784,0.268522 -1.02374,0 -1.695044,-0.268522 -0.662914,-0.276914 -0.981784,-0.780392 -0.318869,-0.51187 -0.318869,-1.21674 v -3.725742 z m -1.695044,0 v 0.503479 h -0.02517 q 0,-0.184609 -0.134261,-0.302087 -0.12587,-0.117479 -0.310479,-0.117479 0,0 -0.06713,0 -0.06713,0 -0.06713,0 v -0.08391 z m 2.274044,0 v 0.08391 q 0,0 -0.06713,0 -0.06713,0 -0.06713,0 -0.184609,0 -0.31887,0.117479 -0.12587,0.117478 -0.12587,0.302087 h -0.01678 v -0.503479 z m 2.509002,0 v 0.503479 h -0.02517 q 0,-0.184609 -0.134261,-0.302087 -0.125869,-0.117479 -0.310478,-0.117479 0,0 -0.06713,0 -0.06713,0 -0.06713,0 v -0.08391 z m 1.28387,0 v 0.08391 q 0,0 -0.06713,0 -0.06713,0 -0.06713,0 -0.184609,0 -0.31887,0.117479 -0.12587,0.117478 -0.12587,0.302087 h -0.01678 v -0.503479 z"
         id="text1-5"
         aria-label="MENU" />
      <rect
         style="fill:#141220;fill-opacity:1;stroke:#141220;stroke-width:7.9375e-09;stroke-dasharray:none"
         id="rect2-5"
         width="27.931664"
         height="1.5071042"
         x="45.553406"
         y="33.761631" />
      <rect
         style="fill:#141220;fill-opacity:1;stroke:#141220;stroke-width:7.9375e-09;stroke-dasharray:none"
         id="rect2-8-0"
         width="27.931664"
         height="1.5071042"
         x="45.50359"
         y="37.784992" />
      <rect
         style="fill:#141220;fill-opacity:1;stroke:#141220;stroke-width:7.9375e-09;stroke-dasharray:none"
         id="rect2-87-9"
         width="27.931664"
         height="1.5071042"
         x="45.490231"
         y="41.499249" />
    </g>
  </g>
</svg>
