<?xml version="1.0" encoding="UTF-8" standalone="no"?>
<!-- Created with Inkscape (http://www.inkscape.org/) -->

<svg
   width="71.520203mm"
   height="59.923435mm"
   viewBox="0 0 71.520203 59.923435"
   version="1.1"
   id="svg1"
   sodipodi:docname="muteIconLight.svg"
   inkscape:version="1.3 (0e150ed6c4, 2023-07-21)"
   xmlns:inkscape="http://www.inkscape.org/namespaces/inkscape"
   xmlns:sodipodi="http://sodipodi.sourceforge.net/DTD/sodipodi-0.dtd"
   xmlns="http://www.w3.org/2000/svg"
   xmlns:svg="http://www.w3.org/2000/svg">
  <sodipodi:namedview
     id="namedview1"
     pagecolor="#505050"
     bordercolor="#ffffff"
     borderopacity="1"
     inkscape:showpageshadow="0"
     inkscape:pageopacity="0"
     inkscape:pagecheckerboard="1"
     inkscape:deskcolor="#505050"
     inkscape:document-units="mm"
     inkscape:zoom="2.2078075"
     inkscape:cx="110.96982"
     inkscape:cy="89.455264"
     inkscape:window-width="1920"
     inkscape:window-height="974"
     inkscape:window-x="2869"
     inkscape:window-y="76"
     inkscape:window-maximized="1"
     inkscape:current-layer="layer1" />
  <defs
     id="defs1" />
  <g
     inkscape:label="Layer 1"
     inkscape:groupmode="layer"
     id="layer1"
     transform="translate(-28.198636,-94.583966)">
    <path
       id="rect3-6-5-5"
       style="fill:#141220;fill-opacity:1;stroke:#c84c09;stroke-width:0"
       d="M 62.793424 94.634609 A 4.2666488 4.2666488 0 0 0 61.409012 95.10073 L 42.100113 105.56727 C 41.921943 105.54447 41.740957 105.52645 41.55596 105.52645 L 32.191674 105.52645 C 29.979563 105.52645 28.198636 107.30736 28.198636 109.51949 L 28.198636 137.96943 C 28.198636 140.18155 29.979563 141.96247 32.191674 141.96247 L 41.55596 141.96247 C 41.711659 141.96247 41.864921 141.95115 42.01588 141.93405 L 62.95207 153.92143 L 62.95207 94.637709 A 4.2666488 4.2666488 0 0 0 62.793424 94.634609 z M 97.944766 112.33224 C 97.432507 112.35224 96.888961 112.56095 96.434781 112.9539 L 85.042195 122.81428 L 73.678547 112.97923 C 72.770158 112.19306 71.505844 112.14439 70.844095 112.86967 C 70.182336 113.5949 70.381157 114.8115 71.289546 115.59767 L 82.334866 125.15729 L 71.230635 134.76756 C 70.322246 135.55373 70.123425 136.77034 70.785184 137.49556 C 71.446943 138.22082 72.711247 138.17169 73.619636 137.38549 L 85.041678 127.49979 L 96.493692 137.41133 C 97.402081 138.19749 98.666395 138.24663 99.328144 137.5214 C 99.989894 136.79614 99.791083 135.57905 98.882694 134.79288 L 87.749006 125.15678 L 98.823782 115.57235 C 99.732172 114.78618 99.930983 113.56906 99.269233 112.84383 C 98.938364 112.48119 98.457066 112.31236 97.944766 112.33224 z " />
  </g>
</svg>
