<?xml version="1.0" encoding="UTF-8" standalone="no"?>
<!-- Created with Inkscape (http://www.inkscape.org/) -->

<svg
   width="55.091465mm"
   height="55.934345mm"
   viewBox="0 0 55.091465 55.934345"
   version="1.1"
   id="svg1"
   inkscape:version="1.3 (0e150ed6c4, 2023-07-21)"
   sodipodi:docname="ButtonIconsSourceFile.svg"
   xmlns:inkscape="http://www.inkscape.org/namespaces/inkscape"
   xmlns:sodipodi="http://sodipodi.sourceforge.net/DTD/sodipodi-0.dtd"
   xmlns="http://www.w3.org/2000/svg"
   xmlns:svg="http://www.w3.org/2000/svg">
  <sodipodi:namedview
     id="namedview1"
     pagecolor="#505050"
     bordercolor="#ffffff"
     borderopacity="1"
     inkscape:showpageshadow="0"
     inkscape:pageopacity="0"
     inkscape:pagecheckerboard="1"
     inkscape:deskcolor="#505050"
     inkscape:document-units="mm"
     inkscape:zoom="0.32917017"
     inkscape:cx="-173.16271"
     inkscape:cy="715.43542"
     inkscape:window-width="1920"
     inkscape:window-height="974"
     inkscape:window-x="2869"
     inkscape:window-y="76"
     inkscape:window-maximized="1"
     inkscape:current-layer="layer1" />
  <defs
     id="defs1" />
  <g
     inkscape:label="Layer 1"
     inkscape:groupmode="layer"
     id="layer1"
     transform="translate(84.112673,-399.19106)">
    <g
       id="g13"
       transform="translate(-120.20911,94.916885)"
       inkscape:export-filename="NotesIconDark.svg"
       inkscape:export-xdpi="96"
       inkscape:export-ydpi="96">
      <path
         id="rect8-2"
         style="fill:#cbe6ad;stroke:#141220;stroke-width:0.75"
         d="m 48.997243,305.66688 39.285605,0.10047 2.511841,52.11288 -38.783238,0.60284 z"
         sodipodi:nodetypes="ccccc" />
      <rect
         style="fill:#f5f5f5;fill-opacity:1;stroke:#141220;stroke-width:0.75;stroke-dasharray:none;stroke-opacity:1"
         id="rect8"
         width="39.6875"
         height="52.916668"
         x="47.174263"
         y="306.91687" />
      <path
         style="fill:#4d4d4d;fill-opacity:1;stroke:#cbe6ad;stroke-width:0;stroke-dasharray:none;stroke-opacity:1"
         id="path8"
         sodipodi:type="arc"
         sodipodi:cx="52.425537"
         sodipodi:cy="308.90616"
         sodipodi:rx="1.5630026"
         sodipodi:ry="1.2788204"
         sodipodi:start="0.65778456"
         sodipodi:end="0.65751517"
         sodipodi:open="true"
         sodipodi:arc-type="arc"
         d="m 53.662417,309.68798 a 1.5630026,1.2788204 0 0 1 -2.192362,0.23022 1.5630026,1.2788204 0 0 1 -0.281527,-1.79373 1.5630026,1.2788204 0 0 1 2.192325,-0.23046 1.5630026,1.2788204 0 0 1 0.281821,1.7937" />
      <path
         style="fill:#4d4d4d;fill-opacity:1;stroke:#cbe6ad;stroke-width:0;stroke-dasharray:none;stroke-opacity:1"
         id="path8-2"
         sodipodi:type="arc"
         sodipodi:cx="59.664215"
         sodipodi:cy="308.90222"
         sodipodi:rx="1.5630026"
         sodipodi:ry="1.2788204"
         sodipodi:start="0.65778456"
         sodipodi:end="0.65751517"
         sodipodi:open="true"
         sodipodi:arc-type="arc"
         d="m 60.901095,309.68405 a 1.5630026,1.2788204 0 0 1 -2.192362,0.23022 1.5630026,1.2788204 0 0 1 -0.281527,-1.79374 1.5630026,1.2788204 0 0 1 2.192325,-0.23046 1.5630026,1.2788204 0 0 1 0.281821,1.79371" />
      <path
         style="fill:#4d4d4d;fill-opacity:1;stroke:#cbe6ad;stroke-width:0;stroke-dasharray:none;stroke-opacity:1"
         id="path8-20"
         sodipodi:type="arc"
         sodipodi:cx="67.033295"
         sodipodi:cy="308.90222"
         sodipodi:rx="1.5630026"
         sodipodi:ry="1.2788204"
         sodipodi:start="0.65778456"
         sodipodi:end="0.65751517"
         sodipodi:open="true"
         sodipodi:arc-type="arc"
         d="m 68.270175,309.68405 a 1.5630026,1.2788204 0 0 1 -2.192362,0.23022 1.5630026,1.2788204 0 0 1 -0.281527,-1.79374 1.5630026,1.2788204 0 0 1 2.192324,-0.23046 1.5630026,1.2788204 0 0 1 0.281822,1.79371" />
      <path
         style="fill:#4d4d4d;fill-opacity:1;stroke:#cbe6ad;stroke-width:0;stroke-dasharray:none;stroke-opacity:1"
         id="path8-1"
         sodipodi:type="arc"
         sodipodi:cx="74.159378"
         sodipodi:cy="308.85199"
         sodipodi:rx="1.5630026"
         sodipodi:ry="1.2788204"
         sodipodi:start="0.65778456"
         sodipodi:end="0.65751517"
         sodipodi:open="true"
         sodipodi:arc-type="arc"
         d="m 75.396258,309.63382 a 1.5630026,1.2788204 0 0 1 -2.192362,0.23022 1.5630026,1.2788204 0 0 1 -0.281527,-1.79374 1.5630026,1.2788204 0 0 1 2.192324,-0.23046 1.5630026,1.2788204 0 0 1 0.281822,1.7937" />
      <path
         style="fill:#4d4d4d;fill-opacity:1;stroke:#cbe6ad;stroke-width:0;stroke-dasharray:none;stroke-opacity:1"
         id="path8-0"
         sodipodi:type="arc"
         sodipodi:cx="81.815544"
         sodipodi:cy="308.85199"
         sodipodi:rx="1.5630026"
         sodipodi:ry="1.2788204"
         sodipodi:start="0.65778456"
         sodipodi:end="0.65751517"
         sodipodi:open="true"
         sodipodi:arc-type="arc"
         d="m 83.052424,309.63382 a 1.5630026,1.2788204 0 0 1 -2.192362,0.23022 1.5630026,1.2788204 0 0 1 -0.281527,-1.79374 1.5630026,1.2788204 0 0 1 2.192325,-0.23046 1.5630026,1.2788204 0 0 1 0.281821,1.7937" />
      <rect
         style="fill:#141220;fill-opacity:1;stroke:#cbe6ad;stroke-width:0;stroke-dasharray:none;stroke-opacity:1"
         id="rect9"
         width="1.5071042"
         height="5.2748647"
         x="51.693672"
         y="304.3848" />
      <rect
         style="fill:#141220;fill-opacity:1;stroke:#cbe6ad;stroke-width:0;stroke-dasharray:none;stroke-opacity:1"
         id="rect9-9"
         width="1.5071042"
         height="5.2748647"
         x="58.988682"
         y="304.4852" />
      <rect
         style="fill:#141220;fill-opacity:1;stroke:#cbe6ad;stroke-width:0;stroke-dasharray:none;stroke-opacity:1"
         id="rect9-6"
         width="1.5071042"
         height="5.2748647"
         x="66.346786"
         y="304.43497" />
      <rect
         style="fill:#141220;fill-opacity:1;stroke:#cbe6ad;stroke-width:0;stroke-dasharray:none;stroke-opacity:1"
         id="rect9-69"
         width="1.5071042"
         height="5.2748647"
         x="73.440292"
         y="304.35123" />
      <rect
         style="fill:#141220;fill-opacity:1;stroke:#cbe6ad;stroke-width:0;stroke-dasharray:none;stroke-opacity:1"
         id="rect9-3"
         width="1.5071042"
         height="5.2748647"
         x="81.103172"
         y="304.2742" />
      <rect
         style="fill:#141220;fill-opacity:1;stroke:#141220;stroke-width:0;stroke-dasharray:none;stroke-opacity:1"
         id="rect13"
         width="27.630243"
         height="1.9089986"
         x="54.858589"
         y="321.51556" />
      <rect
         style="fill:#141220;fill-opacity:1;stroke:#141220;stroke-width:0;stroke-dasharray:none;stroke-opacity:1"
         id="rect13-6"
         width="31.14682"
         height="1.9089986"
         x="51.573677"
         y="329.22208" />
      <rect
         style="fill:#141220;fill-opacity:1;stroke:#141220;stroke-width:0;stroke-dasharray:none;stroke-opacity:1"
         id="rect13-7"
         width="31.44824"
         height="1.9089986"
         x="51.570354"
         y="339.35995" />
      <g
         id="g12"
         transform="matrix(0.56291303,-0.48018504,0.48018504,0.56291303,-114.67312,223.84468)">
        <path
           id="rect11"
           style="fill:#deaa87;stroke:#141220;stroke-width:0.373156"
           d="m 79.782191,268.80036 c 4.975811,-0.54471 5.047122,-0.58373 9.710434,-0.004 l -4.842742,7.57815 z"
           sodipodi:nodetypes="cccc" />
        <path
           id="rect11-5"
           style="fill:#141220;stroke:#141220;stroke-width:0.14444"
           d="m 82.765788,273.19667 c 1.926019,-0.21085 1.953622,-0.22595 3.758679,-0.002 l -1.874511,2.93332 z"
           sodipodi:nodetypes="cccc" />
        <path
           style="fill:#d2a4a4;fill-opacity:1;stroke:#141220;stroke-width:0.712925;stroke-dasharray:none;stroke-opacity:1"
           id="path11"
           sodipodi:type="arc"
           sodipodi:cx="84.6894"
           sodipodi:cy="225.09747"
           sodipodi:rx="4.9430227"
           sodipodi:ry="7.9571042"
           sodipodi:start="0.65778456"
           sodipodi:end="0.65751517"
           sodipodi:open="true"
           sodipodi:arc-type="arc"
           d="m 88.601054,229.96217 a 4.9430227,7.9571042 0 0 1 -6.933383,1.43247 4.9430227,7.9571042 0 0 1 -0.890332,-11.16102 4.9430227,7.9571042 0 0 1 6.933262,-1.43397 4.9430227,7.9571042 0 0 1 0.891267,11.16082" />
        <rect
           style="fill:#ffe680;fill-opacity:1;stroke:#141220;stroke-width:0.750001;stroke-dasharray:none;stroke-opacity:1"
           id="rect10"
           width="9.6621981"
           height="43.479893"
           x="79.812378"
           y="224.81328" />
        <rect
           style="fill:#cccccc;fill-opacity:1;stroke:#141220;stroke-width:0.671628;stroke-dasharray:none;stroke-opacity:1"
           id="rect12"
           width="9.4575529"
           height="4.1206431"
           x="80.039185"
           y="223.37024" />
      </g>
    </g>
  </g>
</svg>
