<?xml version="1.0" encoding="UTF-8" standalone="no"?>
<!-- Created with Inkscape (http://www.inkscape.org/) -->

<svg
   width="73.217072mm"
   height="59.923687mm"
   viewBox="0 0 73.217072 59.923687"
   version="1.1"
   id="svg1"
   sodipodi:docname="unMuteIconDark.svg"
   inkscape:version="1.3 (0e150ed6c4, 2023-07-21)"
   xmlns:inkscape="http://www.inkscape.org/namespaces/inkscape"
   xmlns:sodipodi="http://sodipodi.sourceforge.net/DTD/sodipodi-0.dtd"
   xmlns="http://www.w3.org/2000/svg"
   xmlns:svg="http://www.w3.org/2000/svg">
  <sodipodi:namedview
     id="namedview1"
     pagecolor="#505050"
     bordercolor="#ffffff"
     borderopacity="1"
     inkscape:showpageshadow="0"
     inkscape:pageopacity="0"
     inkscape:pagecheckerboard="1"
     inkscape:deskcolor="#505050"
     inkscape:document-units="mm"
     inkscape:zoom="1.0783198"
     inkscape:cx="230.9148"
     inkscape:cy="202.63005"
     inkscape:window-width="1920"
     inkscape:window-height="974"
     inkscape:window-x="2869"
     inkscape:window-y="76"
     inkscape:window-maximized="1"
     inkscape:current-layer="layer1" />
  <defs
     id="defs1" />
  <g
     inkscape:label="Layer 1"
     inkscape:groupmode="layer"
     id="layer1"
     transform="translate(98.687518,-201.91078)">
    <path
       id="rect3-6-1-5"
       style="fill:#cbe6ad;fill-opacity:1;stroke:#c84c09;stroke-width:0"
       d="M 95.131239 104.68624 A 1.4962133 1.4962133 0 0 0 94.645759 104.8497 L 87.874583 108.52007 C 87.812103 108.51207 87.748816 108.50575 87.683942 108.50575 L 84.399926 108.50575 C 83.624191 108.50575 82.999662 109.13028 82.999662 109.90602 L 82.999662 119.88274 C 82.999662 120.65847 83.624191 121.28301 84.399926 121.28301 L 87.683942 121.28301 C 87.738542 121.28301 87.792106 121.27904 87.845044 121.27304 L 95.293248 125.5378 A 1.0816488 1.0816488 0 0 0 95.381138 125.57532 L 95.381138 104.69095 A 1.4962133 1.4962133 0 0 0 95.131239 104.68624 z M 100.60816 106.10698 C 99.724328 106.09998 99.626138 106.2725 100.60816 106.69195 C 101.73685 106.99899 102.79559 107.50652 103.72945 108.18808 C 107.83082 111.22952 108.58717 116.8865 105.41875 120.82344 L 105.41875 120.8238 C 104.20059 122.32926 102.51625 123.42492 100.60816 123.95324 C 99.408195 124.16233 99.406218 124.39791 100.60816 124.65981 C 103.02737 124.32026 105.21881 123.05073 106.71681 121.121 L 106.71681 121.12064 C 109.88528 117.01912 109.12896 111.12558 105.0275 107.95703 C 103.73929 106.96838 102.21653 106.33089 100.60816 106.10698 z M 99.485342 109.07423 C 99.173413 109.06723 99.019814 109.11462 99.820594 109.48704 C 100.59278 109.6959 101.31717 110.04094 101.95606 110.50458 C 104.76198 112.57352 105.27934 116.42177 103.11168 119.09989 L 103.11168 119.10025 C 102.27828 120.12435 101.12601 120.86961 99.820594 121.22901 C 98.846345 121.65248 99.572905 121.61635 99.820594 121.70959 C 101.47569 121.47861 102.97497 120.61499 103.99982 119.30231 L 103.99982 119.30194 C 106.16752 116.51191 105.65002 112.50285 102.84402 110.34746 C 101.96267 109.67493 100.92095 109.24141 99.820594 109.08909 C 99.710929 109.08509 99.589319 109.07653 99.485342 109.07423 z M 98.823356 110.52759 C 98.359667 110.52391 98.308154 110.61452 98.823356 110.83457 C 99.415501 110.99566 99.970902 111.26186 100.46083 111.61943 C 102.61254 113.21505 103.00941 116.1829 101.34717 118.24835 L 101.34717 118.24853 C 100.70808 119.03833 99.824397 119.61318 98.823356 119.89035 C 98.193813 120.00005 98.192775 120.12354 98.823356 120.26094 C 100.09255 120.0828 101.24228 119.41677 102.02818 118.40437 L 102.02818 118.40419 C 103.69045 116.25241 103.2936 113.16051 101.14185 111.49819 C 100.466 110.97951 99.667155 110.64506 98.823356 110.52759 z M 98.234401 112.08425 C 98.070753 112.08057 97.990068 112.10541 98.410181 112.3008 C 98.815293 112.41037 99.195284 112.59143 99.530465 112.83467 C 101.00255 113.9201 101.27404 115.93905 100.13682 117.34407 L 100.13682 117.34425 C 99.699591 117.88153 99.095042 118.27254 98.410181 118.4611 C 97.899061 118.68327 98.280238 118.66425 98.410181 118.71317 C 99.278493 118.59199 100.06506 118.13895 100.60273 117.45027 L 100.60273 117.45009 C 101.73997 115.98634 101.46848 113.88299 99.996374 112.75221 C 99.533991 112.39938 98.987461 112.17195 98.410181 112.09204 C 98.352648 112.08994 98.28895 112.08544 98.234401 112.08425 z "
       transform="matrix(2.8516314,0,0,2.8516314,-335.37196,-96.56515)" />
  </g>
</svg>
