<?xml version="1.0" encoding="UTF-8" standalone="no"?>
<!-- Created with Inkscape (http://www.inkscape.org/) -->

<svg
   width="73.217079mm"
   height="59.923687mm"
   viewBox="0 0 73.217079 59.923687"
   version="1.1"
   id="svg1"
   sodipodi:docname="unmuteIconLight.svg"
   inkscape:version="1.3 (0e150ed6c4, 2023-07-21)"
   xmlns:inkscape="http://www.inkscape.org/namespaces/inkscape"
   xmlns:sodipodi="http://sodipodi.sourceforge.net/DTD/sodipodi-0.dtd"
   xmlns="http://www.w3.org/2000/svg"
   xmlns:svg="http://www.w3.org/2000/svg">
  <sodipodi:namedview
     id="namedview1"
     pagecolor="#505050"
     bordercolor="#ffffff"
     borderopacity="1"
     inkscape:showpageshadow="0"
     inkscape:pageopacity="0"
     inkscape:pagecheckerboard="1"
     inkscape:deskcolor="#505050"
     inkscape:document-units="mm"
     inkscape:zoom="2.1566394"
     inkscape:cx="44.745543"
     inkscape:cy="255.72194"
     inkscape:window-width="2880"
     inkscape:window-height="1514"
     inkscape:window-x="-11"
     inkscape:window-y="-11"
     inkscape:window-maximized="1"
     inkscape:current-layer="layer1" />
  <defs
     id="defs1" />
  <g
     inkscape:label="Layer 1"
     inkscape:groupmode="layer"
     id="layer1"
     transform="translate(-30.235718,-197.58848)">
    <path
       id="rect3-6-1-5-3"
       style="fill:#141220;fill-opacity:1;stroke:#c84c09;stroke-width:0"
       d="M 64.830506 197.63912 A 4.2666488 4.2666488 0 0 0 63.446094 198.10524 L 44.137195 208.57179 C 43.959025 208.54899 43.778556 208.53096 43.593559 208.53096 L 34.228756 208.53096 C 32.016644 208.53096 30.235718 210.31188 30.235718 212.524 L 30.235718 240.97395 C 30.235718 243.18602 32.016644 244.96698 34.228756 244.96698 L 43.593559 244.96698 C 43.749258 244.96698 43.902004 244.95566 44.052962 244.93856 L 65.292493 257.10009 A 3.0844637 3.0844637 0 0 0 65.511601 257.19363 L 65.511601 197.65256 A 4.2666488 4.2666488 0 0 0 64.830506 197.63912 z M 80.448674 201.69056 C 77.928288 201.67056 77.64829 202.16255 80.448674 203.35867 C 83.667279 204.23424 86.686398 205.68152 89.349422 207.62508 C 101.04505 216.29813 103.20184 232.42973 94.166699 243.65647 L 94.166699 243.6575 C 90.692957 247.95051 85.889833 251.07493 80.448674 252.58151 C 77.02679 253.17775 77.02115 253.84953 80.448674 254.59637 C 87.347351 253.6281 93.596542 250.00786 97.868282 244.505 L 97.868282 244.50396 C 106.90357 232.80795 104.74684 216.00172 93.051005 206.9662 C 89.377453 204.14694 85.035145 202.32905 80.448674 201.69056 z M 77.246802 210.15205 C 76.357294 210.13205 75.91929 210.26723 78.202816 211.32924 C 80.404802 211.92483 82.47049 212.90875 84.292367 214.23088 C 92.293861 220.13071 93.769131 231.10453 87.587773 238.74152 L 87.587773 238.74256 C 85.211227 241.66289 81.925378 243.78811 78.202816 244.81299 C 75.424622 246.02062 77.496508 245.91757 78.202816 246.18345 C 82.922526 245.52478 87.197951 243.06209 90.120435 239.31875 L 90.120435 239.31772 C 96.301903 231.36153 94.826166 219.92919 86.824512 213.78284 C 84.311226 211.86503 81.34062 210.62879 78.202816 210.19443 C 77.890096 210.18303 77.543302 210.15865 77.246802 210.15205 z M 75.486186 214.57969 C 74.163914 214.56919 74.017018 214.82757 75.486186 215.45509 C 77.174765 215.91444 78.758563 216.67355 80.155668 217.6932 C 86.291554 222.24334 87.423274 230.70654 82.683163 236.59643 L 82.683163 236.59695 C 80.86073 238.84919 78.340786 240.48844 75.486186 241.27884 C 73.690961 241.59164 73.688002 241.9438 75.486186 242.33562 C 79.105444 241.82764 82.384075 239.92834 84.625163 237.04137 L 84.625163 237.04085 C 89.365351 230.90476 88.233662 222.0878 82.097669 217.34748 C 80.17041 215.86841 77.89239 214.91467 75.486186 214.57969 z M 73.806185 219.0187 C 73.339522 219.0082 73.109955 219.07956 74.307963 219.63675 C 75.463192 219.94921 76.546787 220.46499 77.5026 221.15862 C 81.70043 224.25386 82.474625 230.01117 79.231694 234.01778 L 79.231694 234.0183 C 77.984885 235.5504 76.260934 236.66544 74.307963 237.20312 C 72.850437 237.83668 73.937412 237.78245 74.307963 237.92194 C 76.784069 237.57638 79.027069 236.28447 80.560295 234.3206 L 80.560295 234.32009 C 83.803284 230.14603 83.029116 224.14857 78.831201 220.92401 C 77.512655 219.91787 75.954152 219.26931 74.307963 219.04143 C 74.1439 219.03543 73.961738 219.02261 73.806185 219.01921 L 73.806185 219.0187 z " />
  </g>
</svg>
